<?xml version="1.0" standalone="no"?>
<!DOCTYPE svg PUBLIC "-//W3C//DTD SVG 20010904//EN"
 "http://www.w3.org/TR/2001/REC-SVG-20010904/DTD/svg10.dtd">
<svg version="1.0" xmlns="http://www.w3.org/2000/svg"
 width="1065.000000pt" height="1065.000000pt" viewBox="0 0 1065.000000 1065.000000"
 preserveAspectRatio="xMidYMid meet">
<metadata>
Created by potrace 1.14, written by Peter Selinger 2001-2017
</metadata>
<g transform="translate(0.000000,1065.000000) scale(0.100000,-0.100000)"
fill="#000000" stroke="none">
<path d="M5058 10645 c-2 -2 -43 -5 -93 -9 -143 -10 -201 -15 -247 -21 -24 -3
-63 -8 -88 -11 -44 -5 -366 -60 -405 -68 -158 -36 -251 -59 -327 -81 -114 -33
-392 -122 -433 -140 -16 -7 -57 -23 -90 -36 -200 -76 -483 -212 -700 -337
-127 -73 -394 -245 -446 -286 -14 -12 -36 -28 -49 -36 -12 -8 -82 -62 -154
-119 -623 -494 -1126 -1114 -1470 -1810 -69 -140 -156 -335 -191 -431 -10 -25
-23 -58 -30 -75 -32 -76 -152 -458 -170 -542 -2 -10 -15 -65 -28 -123 -27
-111 -71 -347 -83 -440 -4 -30 -8 -64 -9 -75 -3 -19 -11 -88 -20 -165 -19
-165 -27 -690 -12 -880 13 -175 19 -245 23 -251 2 -3 6 -33 9 -65 3 -32 13
-99 21 -149 8 -49 17 -103 20 -120 3 -16 7 -37 9 -45 2 -8 6 -31 9 -50 3 -19
16 -82 30 -140 170 -738 488 -1419 946 -2025 99 -132 244 -306 320 -386 167
-176 311 -317 425 -414 44 -38 82 -71 85 -75 11 -12 239 -189 320 -246 351
-252 770 -479 1155 -626 72 -27 139 -53 150 -58 209 -86 763 -223 1034 -255
30 -4 62 -8 72 -10 19 -4 121 -15 179 -21 286 -25 776 -25 1018 1 125 13 302
37 372 50 14 3 43 8 65 11 22 3 78 14 125 24 47 10 110 24 140 30 131 28 455
125 605 181 152 58 260 101 330 132 76 34 411 201 435 217 8 5 74 44 145 86
105 62 302 190 350 226 6 5 67 51 136 103 178 134 367 298 543 471 55 55 201
211 241 258 28 32 61 71 75 86 14 15 36 42 50 60 14 18 52 67 85 109 202 254
423 609 577 928 43 89 79 166 79 170 0 5 6 17 13 28 20 31 114 274 167 433 69
205 156 528 175 651 3 18 8 43 10 55 12 60 34 190 39 233 3 27 7 58 9 69 2 10
7 48 11 84 3 36 8 76 10 90 19 132 26 701 12 885 -12 147 -21 232 -31 305 -3
19 -10 69 -16 110 -5 41 -12 89 -15 105 -3 17 -13 68 -21 115 -60 331 -210
817 -345 1117 -67 149 -207 425 -269 533 -277 478 -674 966 -1055 1301 -27 24
-56 51 -65 60 -38 36 -274 222 -379 299 -578 419 -1230 715 -1931 875 -8 2
-44 10 -80 19 -36 8 -85 18 -110 21 -24 4 -47 8 -50 10 -3 1 -27 6 -55 9 -27
4 -57 9 -65 11 -17 4 -61 11 -145 21 -33 3 -69 8 -80 10 -11 2 -54 6 -95 9
-41 3 -100 8 -130 12 -51 5 -637 13 -642 8z"/>
</g>
</svg>
